<?xml version="1.0" encoding="utf-8" standalone="no"?>
<!DOCTYPE svg PUBLIC "-//W3C//DTD SVG 1.1//EN"
  "http://www.w3.org/Graphics/SVG/1.1/DTD/svg11.dtd">
<svg xmlns:xlink="http://www.w3.org/1999/xlink" width="460.8pt" height="263.52pt" viewBox="0 0 460.8 263.52" xmlns="http://www.w3.org/2000/svg" version="1.1">
 <metadata>
  <rdf:RDF xmlns:dc="http://purl.org/dc/elements/1.1/" xmlns:cc="http://creativecommons.org/ns#" xmlns:rdf="http://www.w3.org/1999/02/22-rdf-syntax-ns#">
   <cc:Work>
    <dc:type rdf:resource="http://purl.org/dc/dcmitype/StillImage"/>
    <dc:date>2022-11-14T15:47:32.494919</dc:date>
    <dc:format>image/svg+xml</dc:format>
    <dc:creator>
     <cc:Agent>
      <dc:title>Matplotlib v3.5.2, https://matplotlib.org/</dc:title>
     </cc:Agent>
    </dc:creator>
   </cc:Work>
  </rdf:RDF>
 </metadata>
 <defs>
  <style type="text/css">*{stroke-linejoin: round; stroke-linecap: butt}</style>
 </defs>
 <g id="figure_1">
  <g id="patch_1">
   <path d="M 0 263.52 
L 460.8 263.52 
L 460.8 0 
L 0 0 
z
" style="fill: #ffffff"/>
  </g>
  <g id="axes_1">
   <g id="patch_2">
    <path d="M 57.6 216.863446 
L 414.72 216.863446 
L 414.72 49.291754 
L 57.6 49.291754 
z
" style="fill: #ffffff"/>
   </g>
   <g id="patch_3">
    <path d="M 73.832727 209.246551 
L 178.721119 209.246551 
L 178.721119 195.511166 
L 73.832727 195.511166 
L 73.832727 209.246551 
z
" clip-path="url(#pd7fc26c44d)" style="fill: none; stroke: #a6cee3; stroke-linejoin: miter"/>
   </g>
   <g id="patch_4">
    <path d="M 183.715804 209.246551 
L 288.604196 209.246551 
L 288.604196 195.511166 
L 183.715804 195.511166 
L 183.715804 209.246551 
z
" clip-path="url(#pd7fc26c44d)" style="fill: none; stroke: #a6cee3; stroke-linejoin: miter"/>
   </g>
   <g id="patch_5">
    <path d="M 293.598881 209.246551 
L 398.487273 209.246551 
L 398.487273 195.511166 
L 293.598881 195.511166 
L 293.598881 209.246551 
z
" clip-path="url(#pd7fc26c44d)" style="fill: none; stroke: #1f78b4; stroke-linejoin: miter"/>
   </g>
   <g id="patch_6">
    <path d="M 73.832727 195.511166 
L 178.721119 195.511166 
L 178.721119 181.775782 
L 73.832727 181.775782 
L 73.832727 195.511166 
z
" clip-path="url(#pd7fc26c44d)" style="fill: none; stroke: #1f78b4; stroke-linejoin: miter"/>
   </g>
   <g id="patch_7">
    <path d="M 183.715804 195.511166 
L 288.604196 195.511166 
L 288.604196 181.775782 
L 183.715804 181.775782 
L 183.715804 195.511166 
z
" clip-path="url(#pd7fc26c44d)" style="fill: none; stroke: #b2df8a; stroke-linejoin: miter"/>
   </g>
   <g id="patch_8">
    <path d="M 293.598881 195.511166 
L 398.487273 195.511166 
L 398.487273 181.775782 
L 293.598881 181.775782 
L 293.598881 195.511166 
z
" clip-path="url(#pd7fc26c44d)" style="fill: none; stroke: #b2df8a; stroke-linejoin: miter"/>
   </g>
   <g id="patch_9">
    <path d="M 119.409231 181.775782 
L 172.477762 181.775782 
L 172.477762 168.040397 
L 119.409231 168.040397 
L 119.409231 181.775782 
z
" clip-path="url(#pd7fc26c44d)" style="fill: none; stroke: #33a02c; stroke-linejoin: miter"/>
   </g>
   <g id="patch_10">
    <path d="M 174.350769 181.775782 
L 227.419301 181.775782 
L 227.419301 168.040397 
L 174.350769 168.040397 
L 174.350769 181.775782 
z
" clip-path="url(#pd7fc26c44d)" style="fill: none; stroke: #33a02c; stroke-linejoin: miter"/>
   </g>
   <g id="patch_11">
    <path d="M 244.900699 181.775782 
L 297.969231 181.775782 
L 297.969231 168.040397 
L 244.900699 168.040397 
L 244.900699 181.775782 
z
" clip-path="url(#pd7fc26c44d)" style="fill: none; stroke: #fb9a99; stroke-linejoin: miter"/>
   </g>
   <g id="patch_12">
    <path d="M 299.842238 181.775782 
L 352.910769 181.775782 
L 352.910769 168.040397 
L 299.842238 168.040397 
L 299.842238 181.775782 
z
" clip-path="url(#pd7fc26c44d)" style="fill: none; stroke: #fb9a99; stroke-linejoin: miter"/>
   </g>
   <g id="patch_13">
    <path d="M 139.075804 168.040397 
L 152.811189 168.040397 
L 152.811189 114.971866 
L 139.075804 114.971866 
L 139.075804 168.040397 
z
" clip-path="url(#pd7fc26c44d)" style="fill: none; stroke: #e31a1c; stroke-linejoin: miter"/>
   </g>
   <g id="patch_14">
    <path d="M 178.408951 168.040397 
L 192.144336 168.040397 
L 192.144336 114.971866 
L 178.408951 114.971866 
L 178.408951 168.040397 
z
" clip-path="url(#pd7fc26c44d)" style="fill: none; stroke: #e31a1c; stroke-linejoin: miter"/>
   </g>
   <g id="patch_15">
    <path d="M 209.625734 168.040397 
L 223.361119 168.040397 
L 223.361119 114.971866 
L 209.625734 114.971866 
L 209.625734 168.040397 
z
" clip-path="url(#pd7fc26c44d)" style="fill: none; stroke: #fdbf6f; stroke-linejoin: miter"/>
   </g>
   <g id="patch_16">
    <path d="M 248.958881 168.040397 
L 262.694266 168.040397 
L 262.694266 114.971866 
L 248.958881 114.971866 
L 248.958881 168.040397 
z
" clip-path="url(#pd7fc26c44d)" style="fill: none; stroke: #fdbf6f; stroke-linejoin: miter"/>
   </g>
   <g id="patch_17">
    <path d="M 280.175664 168.040397 
L 293.911049 168.040397 
L 293.911049 114.971866 
L 280.175664 114.971866 
L 280.175664 168.040397 
z
" clip-path="url(#pd7fc26c44d)" style="fill: none; stroke: #ff7f00; stroke-linejoin: miter"/>
   </g>
   <g id="patch_18">
    <path d="M 319.508811 168.040397 
L 333.244196 168.040397 
L 333.244196 114.971866 
L 319.508811 114.971866 
L 319.508811 168.040397 
z
" clip-path="url(#pd7fc26c44d)" style="fill: none; stroke: #ff7f00; stroke-linejoin: miter"/>
   </g>
   <g id="patch_19">
    <path d="M 139.075804 114.971866 
L 192.144336 114.971866 
L 192.144336 88.125432 
L 139.075804 88.125432 
L 139.075804 114.971866 
z
" clip-path="url(#pd7fc26c44d)" style="fill: none; stroke: #cab2d6; stroke-linejoin: miter"/>
   </g>
   <g id="patch_20">
    <path d="M 209.625734 114.971866 
L 262.694266 114.971866 
L 262.694266 88.125432 
L 209.625734 88.125432 
L 209.625734 114.971866 
z
" clip-path="url(#pd7fc26c44d)" style="fill: none; stroke: #cab2d6; stroke-linejoin: miter"/>
   </g>
   <g id="patch_21">
    <path d="M 280.175664 114.971866 
L 333.244196 114.971866 
L 333.244196 88.125432 
L 280.175664 88.125432 
L 280.175664 114.971866 
z
" clip-path="url(#pd7fc26c44d)" style="fill: none; stroke: #6a3d9a; stroke-linejoin: miter"/>
   </g>
   <g id="patch_22">
    <path d="M 236.16 88.125432 
C 240.299394 88.125432 244.269806 86.480834 247.1968 83.55384 
C 250.123793 80.626847 251.768392 76.656434 251.768392 72.517041 
C 251.768392 68.377647 250.123793 64.407234 247.1968 61.480241 
C 244.269806 58.553248 240.299394 56.908649 236.16 56.908649 
C 232.020606 56.908649 228.050194 58.553248 225.1232 61.480241 
C 222.196207 64.407234 220.551608 68.377647 220.551608 72.517041 
C 220.551608 76.656434 222.196207 80.626847 225.1232 83.55384 
C 228.050194 86.480834 232.020606 88.125432 236.16 88.125432 
z
" clip-path="url(#pd7fc26c44d)" style="fill: #6a3d9a; stroke: #6a3d9a; stroke-linejoin: miter"/>
   </g>
   <g id="matplotlib.axis_1">
    <g id="xtick_1">
     <g id="line2d_1">
      <path d="M 73.832727 216.863446 
L 73.832727 49.291754 
" clip-path="url(#pd7fc26c44d)" style="fill: none; stroke: #808080; stroke-opacity: 0; stroke-width: 0.8; stroke-linecap: square"/>
     </g>
    </g>
    <g id="xtick_2">
     <g id="line2d_2">
      <path d="M 78.203077 216.863446 
L 78.203077 49.291754 
" clip-path="url(#pd7fc26c44d)" style="fill: none; stroke: #808080; stroke-opacity: 0; stroke-width: 0.8; stroke-linecap: square"/>
     </g>
    </g>
    <g id="xtick_3">
     <g id="line2d_3">
      <path d="M 82.573427 216.863446 
L 82.573427 49.291754 
" clip-path="url(#pd7fc26c44d)" style="fill: none; stroke: #808080; stroke-opacity: 0; stroke-width: 0.8; stroke-linecap: square"/>
     </g>
    </g>
    <g id="xtick_4">
     <g id="line2d_4">
      <path d="M 86.943776 216.863446 
L 86.943776 49.291754 
" clip-path="url(#pd7fc26c44d)" style="fill: none; stroke: #808080; stroke-opacity: 0; stroke-width: 0.8; stroke-linecap: square"/>
     </g>
    </g>
    <g id="xtick_5">
     <g id="line2d_5">
      <path d="M 91.314126 216.863446 
L 91.314126 49.291754 
" clip-path="url(#pd7fc26c44d)" style="fill: none; stroke: #808080; stroke-opacity: 0; stroke-width: 0.8; stroke-linecap: square"/>
     </g>
    </g>
    <g id="xtick_6">
     <g id="line2d_6">
      <path d="M 95.684476 216.863446 
L 95.684476 49.291754 
" clip-path="url(#pd7fc26c44d)" style="fill: none; stroke: #808080; stroke-opacity: 0; stroke-width: 0.8; stroke-linecap: square"/>
     </g>
    </g>
    <g id="xtick_7">
     <g id="line2d_7">
      <path d="M 100.054825 216.863446 
L 100.054825 49.291754 
" clip-path="url(#pd7fc26c44d)" style="fill: none; stroke: #808080; stroke-opacity: 0; stroke-width: 0.8; stroke-linecap: square"/>
     </g>
    </g>
    <g id="xtick_8">
     <g id="line2d_8">
      <path d="M 104.425175 216.863446 
L 104.425175 49.291754 
" clip-path="url(#pd7fc26c44d)" style="fill: none; stroke: #808080; stroke-opacity: 0; stroke-width: 0.8; stroke-linecap: square"/>
     </g>
    </g>
    <g id="xtick_9">
     <g id="line2d_9">
      <path d="M 108.795524 216.863446 
L 108.795524 49.291754 
" clip-path="url(#pd7fc26c44d)" style="fill: none; stroke: #808080; stroke-opacity: 0; stroke-width: 0.8; stroke-linecap: square"/>
     </g>
    </g>
    <g id="xtick_10">
     <g id="line2d_10">
      <path d="M 113.165874 216.863446 
L 113.165874 49.291754 
" clip-path="url(#pd7fc26c44d)" style="fill: none; stroke: #808080; stroke-opacity: 0; stroke-width: 0.8; stroke-linecap: square"/>
     </g>
    </g>
    <g id="xtick_11">
     <g id="line2d_11">
      <path d="M 117.536224 216.863446 
L 117.536224 49.291754 
" clip-path="url(#pd7fc26c44d)" style="fill: none; stroke: #808080; stroke-opacity: 0; stroke-width: 0.8; stroke-linecap: square"/>
     </g>
    </g>
    <g id="xtick_12">
     <g id="line2d_12">
      <path d="M 121.906573 216.863446 
L 121.906573 49.291754 
" clip-path="url(#pd7fc26c44d)" style="fill: none; stroke: #808080; stroke-opacity: 0; stroke-width: 0.8; stroke-linecap: square"/>
     </g>
    </g>
    <g id="xtick_13">
     <g id="line2d_13">
      <path d="M 126.276923 216.863446 
L 126.276923 49.291754 
" clip-path="url(#pd7fc26c44d)" style="fill: none; stroke: #808080; stroke-opacity: 0; stroke-width: 0.8; stroke-linecap: square"/>
     </g>
    </g>
    <g id="xtick_14">
     <g id="line2d_14">
      <path d="M 130.647273 216.863446 
L 130.647273 49.291754 
" clip-path="url(#pd7fc26c44d)" style="fill: none; stroke: #808080; stroke-opacity: 0; stroke-width: 0.8; stroke-linecap: square"/>
     </g>
    </g>
    <g id="xtick_15">
     <g id="line2d_15">
      <path d="M 135.017622 216.863446 
L 135.017622 49.291754 
" clip-path="url(#pd7fc26c44d)" style="fill: none; stroke: #808080; stroke-opacity: 0; stroke-width: 0.8; stroke-linecap: square"/>
     </g>
    </g>
    <g id="xtick_16">
     <g id="line2d_16">
      <path d="M 139.387972 216.863446 
L 139.387972 49.291754 
" clip-path="url(#pd7fc26c44d)" style="fill: none; stroke: #808080; stroke-opacity: 0; stroke-width: 0.8; stroke-linecap: square"/>
     </g>
    </g>
    <g id="xtick_17">
     <g id="line2d_17">
      <path d="M 143.758322 216.863446 
L 143.758322 49.291754 
" clip-path="url(#pd7fc26c44d)" style="fill: none; stroke: #808080; stroke-opacity: 0; stroke-width: 0.8; stroke-linecap: square"/>
     </g>
    </g>
    <g id="xtick_18">
     <g id="line2d_18">
      <path d="M 148.128671 216.863446 
L 148.128671 49.291754 
" clip-path="url(#pd7fc26c44d)" style="fill: none; stroke: #808080; stroke-opacity: 0; stroke-width: 0.8; stroke-linecap: square"/>
     </g>
    </g>
    <g id="xtick_19">
     <g id="line2d_19">
      <path d="M 152.499021 216.863446 
L 152.499021 49.291754 
" clip-path="url(#pd7fc26c44d)" style="fill: none; stroke: #808080; stroke-opacity: 0; stroke-width: 0.8; stroke-linecap: square"/>
     </g>
    </g>
    <g id="xtick_20">
     <g id="line2d_20">
      <path d="M 156.869371 216.863446 
L 156.869371 49.291754 
" clip-path="url(#pd7fc26c44d)" style="fill: none; stroke: #808080; stroke-opacity: 0; stroke-width: 0.8; stroke-linecap: square"/>
     </g>
    </g>
    <g id="xtick_21">
     <g id="line2d_21">
      <path d="M 161.23972 216.863446 
L 161.23972 49.291754 
" clip-path="url(#pd7fc26c44d)" style="fill: none; stroke: #808080; stroke-opacity: 0; stroke-width: 0.8; stroke-linecap: square"/>
     </g>
    </g>
    <g id="xtick_22">
     <g id="line2d_22">
      <path d="M 165.61007 216.863446 
L 165.61007 49.291754 
" clip-path="url(#pd7fc26c44d)" style="fill: none; stroke: #808080; stroke-opacity: 0; stroke-width: 0.8; stroke-linecap: square"/>
     </g>
    </g>
    <g id="xtick_23">
     <g id="line2d_23">
      <path d="M 169.98042 216.863446 
L 169.98042 49.291754 
" clip-path="url(#pd7fc26c44d)" style="fill: none; stroke: #808080; stroke-opacity: 0; stroke-width: 0.8; stroke-linecap: square"/>
     </g>
    </g>
    <g id="xtick_24">
     <g id="line2d_24">
      <path d="M 174.350769 216.863446 
L 174.350769 49.291754 
" clip-path="url(#pd7fc26c44d)" style="fill: none; stroke: #808080; stroke-opacity: 0; stroke-width: 0.8; stroke-linecap: square"/>
     </g>
    </g>
    <g id="xtick_25">
     <g id="line2d_25">
      <path d="M 178.721119 216.863446 
L 178.721119 49.291754 
" clip-path="url(#pd7fc26c44d)" style="fill: none; stroke: #808080; stroke-opacity: 0; stroke-width: 0.8; stroke-linecap: square"/>
     </g>
    </g>
    <g id="xtick_26">
     <g id="line2d_26">
      <path d="M 183.091469 216.863446 
L 183.091469 49.291754 
" clip-path="url(#pd7fc26c44d)" style="fill: none; stroke: #808080; stroke-opacity: 0; stroke-width: 0.8; stroke-linecap: square"/>
     </g>
    </g>
    <g id="xtick_27">
     <g id="line2d_27">
      <path d="M 187.461818 216.863446 
L 187.461818 49.291754 
" clip-path="url(#pd7fc26c44d)" style="fill: none; stroke: #808080; stroke-opacity: 0; stroke-width: 0.8; stroke-linecap: square"/>
     </g>
    </g>
    <g id="xtick_28">
     <g id="line2d_28">
      <path d="M 191.832168 216.863446 
L 191.832168 49.291754 
" clip-path="url(#pd7fc26c44d)" style="fill: none; stroke: #808080; stroke-opacity: 0; stroke-width: 0.8; stroke-linecap: square"/>
     </g>
    </g>
    <g id="xtick_29">
     <g id="line2d_29">
      <path d="M 196.202517 216.863446 
L 196.202517 49.291754 
" clip-path="url(#pd7fc26c44d)" style="fill: none; stroke: #808080; stroke-opacity: 0; stroke-width: 0.8; stroke-linecap: square"/>
     </g>
    </g>
    <g id="xtick_30">
     <g id="line2d_30">
      <path d="M 200.572867 216.863446 
L 200.572867 49.291754 
" clip-path="url(#pd7fc26c44d)" style="fill: none; stroke: #808080; stroke-opacity: 0; stroke-width: 0.8; stroke-linecap: square"/>
     </g>
    </g>
    <g id="xtick_31">
     <g id="line2d_31">
      <path d="M 204.943217 216.863446 
L 204.943217 49.291754 
" clip-path="url(#pd7fc26c44d)" style="fill: none; stroke: #808080; stroke-opacity: 0; stroke-width: 0.8; stroke-linecap: square"/>
     </g>
    </g>
    <g id="xtick_32">
     <g id="line2d_32">
      <path d="M 209.313566 216.863446 
L 209.313566 49.291754 
" clip-path="url(#pd7fc26c44d)" style="fill: none; stroke: #808080; stroke-opacity: 0; stroke-width: 0.8; stroke-linecap: square"/>
     </g>
    </g>
    <g id="xtick_33">
     <g id="line2d_33">
      <path d="M 213.683916 216.863446 
L 213.683916 49.291754 
" clip-path="url(#pd7fc26c44d)" style="fill: none; stroke: #808080; stroke-opacity: 0; stroke-width: 0.8; stroke-linecap: square"/>
     </g>
    </g>
    <g id="xtick_34">
     <g id="line2d_34">
      <path d="M 218.054266 216.863446 
L 218.054266 49.291754 
" clip-path="url(#pd7fc26c44d)" style="fill: none; stroke: #808080; stroke-opacity: 0; stroke-width: 0.8; stroke-linecap: square"/>
     </g>
    </g>
    <g id="xtick_35">
     <g id="line2d_35">
      <path d="M 222.424615 216.863446 
L 222.424615 49.291754 
" clip-path="url(#pd7fc26c44d)" style="fill: none; stroke: #808080; stroke-opacity: 0; stroke-width: 0.8; stroke-linecap: square"/>
     </g>
    </g>
    <g id="xtick_36">
     <g id="line2d_36">
      <path d="M 226.794965 216.863446 
L 226.794965 49.291754 
" clip-path="url(#pd7fc26c44d)" style="fill: none; stroke: #808080; stroke-opacity: 0; stroke-width: 0.8; stroke-linecap: square"/>
     </g>
    </g>
    <g id="xtick_37">
     <g id="line2d_37">
      <path d="M 231.165315 216.863446 
L 231.165315 49.291754 
" clip-path="url(#pd7fc26c44d)" style="fill: none; stroke: #808080; stroke-opacity: 0; stroke-width: 0.8; stroke-linecap: square"/>
     </g>
    </g>
    <g id="xtick_38">
     <g id="line2d_38">
      <path d="M 235.535664 216.863446 
L 235.535664 49.291754 
" clip-path="url(#pd7fc26c44d)" style="fill: none; stroke: #808080; stroke-opacity: 0; stroke-width: 0.8; stroke-linecap: square"/>
     </g>
    </g>
    <g id="xtick_39">
     <g id="line2d_39">
      <path d="M 239.906014 216.863446 
L 239.906014 49.291754 
" clip-path="url(#pd7fc26c44d)" style="fill: none; stroke: #808080; stroke-opacity: 0; stroke-width: 0.8; stroke-linecap: square"/>
     </g>
    </g>
    <g id="xtick_40">
     <g id="line2d_40">
      <path d="M 244.276364 216.863446 
L 244.276364 49.291754 
" clip-path="url(#pd7fc26c44d)" style="fill: none; stroke: #808080; stroke-opacity: 0; stroke-width: 0.8; stroke-linecap: square"/>
     </g>
    </g>
    <g id="xtick_41">
     <g id="line2d_41">
      <path d="M 248.646713 216.863446 
L 248.646713 49.291754 
" clip-path="url(#pd7fc26c44d)" style="fill: none; stroke: #808080; stroke-opacity: 0; stroke-width: 0.8; stroke-linecap: square"/>
     </g>
    </g>
    <g id="xtick_42">
     <g id="line2d_42">
      <path d="M 253.017063 216.863446 
L 253.017063 49.291754 
" clip-path="url(#pd7fc26c44d)" style="fill: none; stroke: #808080; stroke-opacity: 0; stroke-width: 0.8; stroke-linecap: square"/>
     </g>
    </g>
    <g id="xtick_43">
     <g id="line2d_43">
      <path d="M 257.387413 216.863446 
L 257.387413 49.291754 
" clip-path="url(#pd7fc26c44d)" style="fill: none; stroke: #808080; stroke-opacity: 0; stroke-width: 0.8; stroke-linecap: square"/>
     </g>
    </g>
    <g id="xtick_44">
     <g id="line2d_44">
      <path d="M 261.757762 216.863446 
L 261.757762 49.291754 
" clip-path="url(#pd7fc26c44d)" style="fill: none; stroke: #808080; stroke-opacity: 0; stroke-width: 0.8; stroke-linecap: square"/>
     </g>
    </g>
    <g id="xtick_45">
     <g id="line2d_45">
      <path d="M 266.128112 216.863446 
L 266.128112 49.291754 
" clip-path="url(#pd7fc26c44d)" style="fill: none; stroke: #808080; stroke-opacity: 0; stroke-width: 0.8; stroke-linecap: square"/>
     </g>
    </g>
    <g id="xtick_46">
     <g id="line2d_46">
      <path d="M 270.498462 216.863446 
L 270.498462 49.291754 
" clip-path="url(#pd7fc26c44d)" style="fill: none; stroke: #808080; stroke-opacity: 0; stroke-width: 0.8; stroke-linecap: square"/>
     </g>
    </g>
    <g id="xtick_47">
     <g id="line2d_47">
      <path d="M 274.868811 216.863446 
L 274.868811 49.291754 
" clip-path="url(#pd7fc26c44d)" style="fill: none; stroke: #808080; stroke-opacity: 0; stroke-width: 0.8; stroke-linecap: square"/>
     </g>
    </g>
    <g id="xtick_48">
     <g id="line2d_48">
      <path d="M 279.239161 216.863446 
L 279.239161 49.291754 
" clip-path="url(#pd7fc26c44d)" style="fill: none; stroke: #808080; stroke-opacity: 0; stroke-width: 0.8; stroke-linecap: square"/>
     </g>
    </g>
    <g id="xtick_49">
     <g id="line2d_49">
      <path d="M 283.60951 216.863446 
L 283.60951 49.291754 
" clip-path="url(#pd7fc26c44d)" style="fill: none; stroke: #808080; stroke-opacity: 0; stroke-width: 0.8; stroke-linecap: square"/>
     </g>
    </g>
    <g id="xtick_50">
     <g id="line2d_50">
      <path d="M 287.97986 216.863446 
L 287.97986 49.291754 
" clip-path="url(#pd7fc26c44d)" style="fill: none; stroke: #808080; stroke-opacity: 0; stroke-width: 0.8; stroke-linecap: square"/>
     </g>
    </g>
    <g id="xtick_51">
     <g id="line2d_51">
      <path d="M 292.35021 216.863446 
L 292.35021 49.291754 
" clip-path="url(#pd7fc26c44d)" style="fill: none; stroke: #808080; stroke-opacity: 0; stroke-width: 0.8; stroke-linecap: square"/>
     </g>
    </g>
    <g id="xtick_52">
     <g id="line2d_52">
      <path d="M 296.720559 216.863446 
L 296.720559 49.291754 
" clip-path="url(#pd7fc26c44d)" style="fill: none; stroke: #808080; stroke-opacity: 0; stroke-width: 0.8; stroke-linecap: square"/>
     </g>
    </g>
    <g id="xtick_53">
     <g id="line2d_53">
      <path d="M 301.090909 216.863446 
L 301.090909 49.291754 
" clip-path="url(#pd7fc26c44d)" style="fill: none; stroke: #808080; stroke-opacity: 0; stroke-width: 0.8; stroke-linecap: square"/>
     </g>
    </g>
    <g id="xtick_54">
     <g id="line2d_54">
      <path d="M 305.461259 216.863446 
L 305.461259 49.291754 
" clip-path="url(#pd7fc26c44d)" style="fill: none; stroke: #808080; stroke-opacity: 0; stroke-width: 0.8; stroke-linecap: square"/>
     </g>
    </g>
    <g id="xtick_55">
     <g id="line2d_55">
      <path d="M 309.831608 216.863446 
L 309.831608 49.291754 
" clip-path="url(#pd7fc26c44d)" style="fill: none; stroke: #808080; stroke-opacity: 0; stroke-width: 0.8; stroke-linecap: square"/>
     </g>
    </g>
    <g id="xtick_56">
     <g id="line2d_56">
      <path d="M 314.201958 216.863446 
L 314.201958 49.291754 
" clip-path="url(#pd7fc26c44d)" style="fill: none; stroke: #808080; stroke-opacity: 0; stroke-width: 0.8; stroke-linecap: square"/>
     </g>
    </g>
    <g id="xtick_57">
     <g id="line2d_57">
      <path d="M 318.572308 216.863446 
L 318.572308 49.291754 
" clip-path="url(#pd7fc26c44d)" style="fill: none; stroke: #808080; stroke-opacity: 0; stroke-width: 0.8; stroke-linecap: square"/>
     </g>
    </g>
    <g id="xtick_58">
     <g id="line2d_58">
      <path d="M 322.942657 216.863446 
L 322.942657 49.291754 
" clip-path="url(#pd7fc26c44d)" style="fill: none; stroke: #808080; stroke-opacity: 0; stroke-width: 0.8; stroke-linecap: square"/>
     </g>
    </g>
    <g id="xtick_59">
     <g id="line2d_59">
      <path d="M 327.313007 216.863446 
L 327.313007 49.291754 
" clip-path="url(#pd7fc26c44d)" style="fill: none; stroke: #808080; stroke-opacity: 0; stroke-width: 0.8; stroke-linecap: square"/>
     </g>
    </g>
    <g id="xtick_60">
     <g id="line2d_60">
      <path d="M 331.683357 216.863446 
L 331.683357 49.291754 
" clip-path="url(#pd7fc26c44d)" style="fill: none; stroke: #808080; stroke-opacity: 0; stroke-width: 0.8; stroke-linecap: square"/>
     </g>
    </g>
    <g id="xtick_61">
     <g id="line2d_61">
      <path d="M 336.053706 216.863446 
L 336.053706 49.291754 
" clip-path="url(#pd7fc26c44d)" style="fill: none; stroke: #808080; stroke-opacity: 0; stroke-width: 0.8; stroke-linecap: square"/>
     </g>
    </g>
    <g id="xtick_62">
     <g id="line2d_62">
      <path d="M 340.424056 216.863446 
L 340.424056 49.291754 
" clip-path="url(#pd7fc26c44d)" style="fill: none; stroke: #808080; stroke-opacity: 0; stroke-width: 0.8; stroke-linecap: square"/>
     </g>
    </g>
    <g id="xtick_63">
     <g id="line2d_63">
      <path d="M 344.794406 216.863446 
L 344.794406 49.291754 
" clip-path="url(#pd7fc26c44d)" style="fill: none; stroke: #808080; stroke-opacity: 0; stroke-width: 0.8; stroke-linecap: square"/>
     </g>
    </g>
    <g id="xtick_64">
     <g id="line2d_64">
      <path d="M 349.164755 216.863446 
L 349.164755 49.291754 
" clip-path="url(#pd7fc26c44d)" style="fill: none; stroke: #808080; stroke-opacity: 0; stroke-width: 0.8; stroke-linecap: square"/>
     </g>
    </g>
    <g id="xtick_65">
     <g id="line2d_65">
      <path d="M 353.535105 216.863446 
L 353.535105 49.291754 
" clip-path="url(#pd7fc26c44d)" style="fill: none; stroke: #808080; stroke-opacity: 0; stroke-width: 0.8; stroke-linecap: square"/>
     </g>
    </g>
    <g id="xtick_66">
     <g id="line2d_66">
      <path d="M 357.905455 216.863446 
L 357.905455 49.291754 
" clip-path="url(#pd7fc26c44d)" style="fill: none; stroke: #808080; stroke-opacity: 0; stroke-width: 0.8; stroke-linecap: square"/>
     </g>
    </g>
    <g id="xtick_67">
     <g id="line2d_67">
      <path d="M 362.275804 216.863446 
L 362.275804 49.291754 
" clip-path="url(#pd7fc26c44d)" style="fill: none; stroke: #808080; stroke-opacity: 0; stroke-width: 0.8; stroke-linecap: square"/>
     </g>
    </g>
    <g id="xtick_68">
     <g id="line2d_68">
      <path d="M 366.646154 216.863446 
L 366.646154 49.291754 
" clip-path="url(#pd7fc26c44d)" style="fill: none; stroke: #808080; stroke-opacity: 0; stroke-width: 0.8; stroke-linecap: square"/>
     </g>
    </g>
    <g id="xtick_69">
     <g id="line2d_69">
      <path d="M 371.016503 216.863446 
L 371.016503 49.291754 
" clip-path="url(#pd7fc26c44d)" style="fill: none; stroke: #808080; stroke-opacity: 0; stroke-width: 0.8; stroke-linecap: square"/>
     </g>
    </g>
    <g id="xtick_70">
     <g id="line2d_70">
      <path d="M 375.386853 216.863446 
L 375.386853 49.291754 
" clip-path="url(#pd7fc26c44d)" style="fill: none; stroke: #808080; stroke-opacity: 0; stroke-width: 0.8; stroke-linecap: square"/>
     </g>
    </g>
    <g id="xtick_71">
     <g id="line2d_71">
      <path d="M 379.757203 216.863446 
L 379.757203 49.291754 
" clip-path="url(#pd7fc26c44d)" style="fill: none; stroke: #808080; stroke-opacity: 0; stroke-width: 0.8; stroke-linecap: square"/>
     </g>
    </g>
    <g id="xtick_72">
     <g id="line2d_72">
      <path d="M 384.127552 216.863446 
L 384.127552 49.291754 
" clip-path="url(#pd7fc26c44d)" style="fill: none; stroke: #808080; stroke-opacity: 0; stroke-width: 0.8; stroke-linecap: square"/>
     </g>
    </g>
    <g id="xtick_73">
     <g id="line2d_73">
      <path d="M 388.497902 216.863446 
L 388.497902 49.291754 
" clip-path="url(#pd7fc26c44d)" style="fill: none; stroke: #808080; stroke-opacity: 0; stroke-width: 0.8; stroke-linecap: square"/>
     </g>
    </g>
    <g id="xtick_74">
     <g id="line2d_74">
      <path d="M 392.868252 216.863446 
L 392.868252 49.291754 
" clip-path="url(#pd7fc26c44d)" style="fill: none; stroke: #808080; stroke-opacity: 0; stroke-width: 0.8; stroke-linecap: square"/>
     </g>
    </g>
    <g id="xtick_75">
     <g id="line2d_75">
      <path d="M 397.238601 216.863446 
L 397.238601 49.291754 
" clip-path="url(#pd7fc26c44d)" style="fill: none; stroke: #808080; stroke-opacity: 0; stroke-width: 0.8; stroke-linecap: square"/>
     </g>
    </g>
   </g>
   <g id="matplotlib.axis_2">
    <g id="ytick_1">
     <g id="line2d_76">
      <path d="M 57.6 209.246551 
L 414.72 209.246551 
" clip-path="url(#pd7fc26c44d)" style="fill: none; stroke: #808080; stroke-opacity: 0; stroke-width: 0.8; stroke-linecap: square"/>
     </g>
    </g>
    <g id="ytick_2">
     <g id="line2d_77">
      <path d="M 57.6 204.876201 
L 414.72 204.876201 
" clip-path="url(#pd7fc26c44d)" style="fill: none; stroke: #808080; stroke-opacity: 0; stroke-width: 0.8; stroke-linecap: square"/>
     </g>
    </g>
    <g id="ytick_3">
     <g id="line2d_78">
      <path d="M 57.6 200.505852 
L 414.72 200.505852 
" clip-path="url(#pd7fc26c44d)" style="fill: none; stroke: #808080; stroke-opacity: 0; stroke-width: 0.8; stroke-linecap: square"/>
     </g>
    </g>
    <g id="ytick_4">
     <g id="line2d_79">
      <path d="M 57.6 196.135502 
L 414.72 196.135502 
" clip-path="url(#pd7fc26c44d)" style="fill: none; stroke: #808080; stroke-opacity: 0; stroke-width: 0.8; stroke-linecap: square"/>
     </g>
    </g>
    <g id="ytick_5">
     <g id="line2d_80">
      <path d="M 57.6 191.765152 
L 414.72 191.765152 
" clip-path="url(#pd7fc26c44d)" style="fill: none; stroke: #808080; stroke-opacity: 0; stroke-width: 0.8; stroke-linecap: square"/>
     </g>
    </g>
    <g id="ytick_6">
     <g id="line2d_81">
      <path d="M 57.6 187.394803 
L 414.72 187.394803 
" clip-path="url(#pd7fc26c44d)" style="fill: none; stroke: #808080; stroke-opacity: 0; stroke-width: 0.8; stroke-linecap: square"/>
     </g>
    </g>
    <g id="ytick_7">
     <g id="line2d_82">
      <path d="M 57.6 183.024453 
L 414.72 183.024453 
" clip-path="url(#pd7fc26c44d)" style="fill: none; stroke: #808080; stroke-opacity: 0; stroke-width: 0.8; stroke-linecap: square"/>
     </g>
    </g>
    <g id="ytick_8">
     <g id="line2d_83">
      <path d="M 57.6 178.654103 
L 414.72 178.654103 
" clip-path="url(#pd7fc26c44d)" style="fill: none; stroke: #808080; stroke-opacity: 0; stroke-width: 0.8; stroke-linecap: square"/>
     </g>
    </g>
    <g id="ytick_9">
     <g id="line2d_84">
      <path d="M 57.6 174.283754 
L 414.72 174.283754 
" clip-path="url(#pd7fc26c44d)" style="fill: none; stroke: #808080; stroke-opacity: 0; stroke-width: 0.8; stroke-linecap: square"/>
     </g>
    </g>
    <g id="ytick_10">
     <g id="line2d_85">
      <path d="M 57.6 169.913404 
L 414.72 169.913404 
" clip-path="url(#pd7fc26c44d)" style="fill: none; stroke: #808080; stroke-opacity: 0; stroke-width: 0.8; stroke-linecap: square"/>
     </g>
    </g>
    <g id="ytick_11">
     <g id="line2d_86">
      <path d="M 57.6 165.543055 
L 414.72 165.543055 
" clip-path="url(#pd7fc26c44d)" style="fill: none; stroke: #808080; stroke-opacity: 0; stroke-width: 0.8; stroke-linecap: square"/>
     </g>
    </g>
    <g id="ytick_12">
     <g id="line2d_87">
      <path d="M 57.6 161.172705 
L 414.72 161.172705 
" clip-path="url(#pd7fc26c44d)" style="fill: none; stroke: #808080; stroke-opacity: 0; stroke-width: 0.8; stroke-linecap: square"/>
     </g>
    </g>
    <g id="ytick_13">
     <g id="line2d_88">
      <path d="M 57.6 156.802355 
L 414.72 156.802355 
" clip-path="url(#pd7fc26c44d)" style="fill: none; stroke: #808080; stroke-opacity: 0; stroke-width: 0.8; stroke-linecap: square"/>
     </g>
    </g>
    <g id="ytick_14">
     <g id="line2d_89">
      <path d="M 57.6 152.432006 
L 414.72 152.432006 
" clip-path="url(#pd7fc26c44d)" style="fill: none; stroke: #808080; stroke-opacity: 0; stroke-width: 0.8; stroke-linecap: square"/>
     </g>
    </g>
    <g id="ytick_15">
     <g id="line2d_90">
      <path d="M 57.6 148.061656 
L 414.72 148.061656 
" clip-path="url(#pd7fc26c44d)" style="fill: none; stroke: #808080; stroke-opacity: 0; stroke-width: 0.8; stroke-linecap: square"/>
     </g>
    </g>
    <g id="ytick_16">
     <g id="line2d_91">
      <path d="M 57.6 143.691306 
L 414.72 143.691306 
" clip-path="url(#pd7fc26c44d)" style="fill: none; stroke: #808080; stroke-opacity: 0; stroke-width: 0.8; stroke-linecap: square"/>
     </g>
    </g>
    <g id="ytick_17">
     <g id="line2d_92">
      <path d="M 57.6 139.320957 
L 414.72 139.320957 
" clip-path="url(#pd7fc26c44d)" style="fill: none; stroke: #808080; stroke-opacity: 0; stroke-width: 0.8; stroke-linecap: square"/>
     </g>
    </g>
    <g id="ytick_18">
     <g id="line2d_93">
      <path d="M 57.6 134.950607 
L 414.72 134.950607 
" clip-path="url(#pd7fc26c44d)" style="fill: none; stroke: #808080; stroke-opacity: 0; stroke-width: 0.8; stroke-linecap: square"/>
     </g>
    </g>
    <g id="ytick_19">
     <g id="line2d_94">
      <path d="M 57.6 130.580257 
L 414.72 130.580257 
" clip-path="url(#pd7fc26c44d)" style="fill: none; stroke: #808080; stroke-opacity: 0; stroke-width: 0.8; stroke-linecap: square"/>
     </g>
    </g>
    <g id="ytick_20">
     <g id="line2d_95">
      <path d="M 57.6 126.209908 
L 414.72 126.209908 
" clip-path="url(#pd7fc26c44d)" style="fill: none; stroke: #808080; stroke-opacity: 0; stroke-width: 0.8; stroke-linecap: square"/>
     </g>
    </g>
    <g id="ytick_21">
     <g id="line2d_96">
      <path d="M 57.6 121.839558 
L 414.72 121.839558 
" clip-path="url(#pd7fc26c44d)" style="fill: none; stroke: #808080; stroke-opacity: 0; stroke-width: 0.8; stroke-linecap: square"/>
     </g>
    </g>
    <g id="ytick_22">
     <g id="line2d_97">
      <path d="M 57.6 117.469208 
L 414.72 117.469208 
" clip-path="url(#pd7fc26c44d)" style="fill: none; stroke: #808080; stroke-opacity: 0; stroke-width: 0.8; stroke-linecap: square"/>
     </g>
    </g>
    <g id="ytick_23">
     <g id="line2d_98">
      <path d="M 57.6 113.098859 
L 414.72 113.098859 
" clip-path="url(#pd7fc26c44d)" style="fill: none; stroke: #808080; stroke-opacity: 0; stroke-width: 0.8; stroke-linecap: square"/>
     </g>
    </g>
    <g id="ytick_24">
     <g id="line2d_99">
      <path d="M 57.6 108.728509 
L 414.72 108.728509 
" clip-path="url(#pd7fc26c44d)" style="fill: none; stroke: #808080; stroke-opacity: 0; stroke-width: 0.8; stroke-linecap: square"/>
     </g>
    </g>
    <g id="ytick_25">
     <g id="line2d_100">
      <path d="M 57.6 104.358159 
L 414.72 104.358159 
" clip-path="url(#pd7fc26c44d)" style="fill: none; stroke: #808080; stroke-opacity: 0; stroke-width: 0.8; stroke-linecap: square"/>
     </g>
    </g>
    <g id="ytick_26">
     <g id="line2d_101">
      <path d="M 57.6 99.98781 
L 414.72 99.98781 
" clip-path="url(#pd7fc26c44d)" style="fill: none; stroke: #808080; stroke-opacity: 0; stroke-width: 0.8; stroke-linecap: square"/>
     </g>
    </g>
    <g id="ytick_27">
     <g id="line2d_102">
      <path d="M 57.6 95.61746 
L 414.72 95.61746 
" clip-path="url(#pd7fc26c44d)" style="fill: none; stroke: #808080; stroke-opacity: 0; stroke-width: 0.8; stroke-linecap: square"/>
     </g>
    </g>
    <g id="ytick_28">
     <g id="line2d_103">
      <path d="M 57.6 91.24711 
L 414.72 91.24711 
" clip-path="url(#pd7fc26c44d)" style="fill: none; stroke: #808080; stroke-opacity: 0; stroke-width: 0.8; stroke-linecap: square"/>
     </g>
    </g>
    <g id="ytick_29">
     <g id="line2d_104">
      <path d="M 57.6 86.876761 
L 414.72 86.876761 
" clip-path="url(#pd7fc26c44d)" style="fill: none; stroke: #808080; stroke-opacity: 0; stroke-width: 0.8; stroke-linecap: square"/>
     </g>
    </g>
    <g id="ytick_30">
     <g id="line2d_105">
      <path d="M 57.6 82.506411 
L 414.72 82.506411 
" clip-path="url(#pd7fc26c44d)" style="fill: none; stroke: #808080; stroke-opacity: 0; stroke-width: 0.8; stroke-linecap: square"/>
     </g>
    </g>
    <g id="ytick_31">
     <g id="line2d_106">
      <path d="M 57.6 78.136062 
L 414.72 78.136062 
" clip-path="url(#pd7fc26c44d)" style="fill: none; stroke: #808080; stroke-opacity: 0; stroke-width: 0.8; stroke-linecap: square"/>
     </g>
    </g>
    <g id="ytick_32">
     <g id="line2d_107">
      <path d="M 57.6 73.765712 
L 414.72 73.765712 
" clip-path="url(#pd7fc26c44d)" style="fill: none; stroke: #808080; stroke-opacity: 0; stroke-width: 0.8; stroke-linecap: square"/>
     </g>
    </g>
    <g id="ytick_33">
     <g id="line2d_108">
      <path d="M 57.6 69.395362 
L 414.72 69.395362 
" clip-path="url(#pd7fc26c44d)" style="fill: none; stroke: #808080; stroke-opacity: 0; stroke-width: 0.8; stroke-linecap: square"/>
     </g>
    </g>
    <g id="ytick_34">
     <g id="line2d_109">
      <path d="M 57.6 65.025013 
L 414.72 65.025013 
" clip-path="url(#pd7fc26c44d)" style="fill: none; stroke: #808080; stroke-opacity: 0; stroke-width: 0.8; stroke-linecap: square"/>
     </g>
    </g>
    <g id="ytick_35">
     <g id="line2d_110">
      <path d="M 57.6 60.654663 
L 414.72 60.654663 
" clip-path="url(#pd7fc26c44d)" style="fill: none; stroke: #808080; stroke-opacity: 0; stroke-width: 0.8; stroke-linecap: square"/>
     </g>
    </g>
   </g>
   <g id="patch_23">
    <path d="M 57.6 216.863446 
L 57.6 49.291754 
" style="fill: none; stroke: #000000; stroke-width: 0.8; stroke-linejoin: miter; stroke-linecap: square"/>
   </g>
   <g id="patch_24">
    <path d="M 414.72 216.863446 
L 414.72 49.291754 
" style="fill: none; stroke: #000000; stroke-width: 0.8; stroke-linejoin: miter; stroke-linecap: square"/>
   </g>
   <g id="patch_25">
    <path d="M 57.6 216.863446 
L 414.72 216.863446 
" style="fill: none; stroke: #000000; stroke-width: 0.8; stroke-linejoin: miter; stroke-linecap: square"/>
   </g>
   <g id="patch_26">
    <path d="M 57.6 49.291754 
L 414.72 49.291754 
" style="fill: none; stroke: #000000; stroke-width: 0.8; stroke-linejoin: miter; stroke-linecap: square"/>
   </g>
   <g id="text_1">
    <!-- 0 -->
    <g transform="translate(124.686298 203.758546)scale(0.05 -0.05)">
     <defs>
      <path id="DejaVuSans-30" d="M 2034 4250 
Q 1547 4250 1301 3770 
Q 1056 3291 1056 2328 
Q 1056 1369 1301 889 
Q 1547 409 2034 409 
Q 2525 409 2770 889 
Q 3016 1369 3016 2328 
Q 3016 3291 2770 3770 
Q 2525 4250 2034 4250 
z
M 2034 4750 
Q 2819 4750 3233 4129 
Q 3647 3509 3647 2328 
Q 3647 1150 3233 529 
Q 2819 -91 2034 -91 
Q 1250 -91 836 529 
Q 422 1150 422 2328 
Q 422 3509 836 4129 
Q 1250 4750 2034 4750 
z
" transform="scale(0.015625)"/>
     </defs>
     <use xlink:href="#DejaVuSans-30"/>
    </g>
   </g>
   <g id="text_2">
    <!-- 1 -->
    <g transform="translate(234.569375 203.758546)scale(0.05 -0.05)">
     <defs>
      <path id="DejaVuSans-31" d="M 794 531 
L 1825 531 
L 1825 4091 
L 703 3866 
L 703 4441 
L 1819 4666 
L 2450 4666 
L 2450 531 
L 3481 531 
L 3481 0 
L 794 0 
L 794 531 
z
" transform="scale(0.015625)"/>
     </defs>
     <use xlink:href="#DejaVuSans-31"/>
    </g>
   </g>
   <g id="text_3">
    <!-- 2 -->
    <g transform="translate(344.452452 203.758546)scale(0.05 -0.05)">
     <defs>
      <path id="DejaVuSans-32" d="M 1228 531 
L 3431 531 
L 3431 0 
L 469 0 
L 469 531 
Q 828 903 1448 1529 
Q 2069 2156 2228 2338 
Q 2531 2678 2651 2914 
Q 2772 3150 2772 3378 
Q 2772 3750 2511 3984 
Q 2250 4219 1831 4219 
Q 1534 4219 1204 4116 
Q 875 4013 500 3803 
L 500 4441 
Q 881 4594 1212 4672 
Q 1544 4750 1819 4750 
Q 2544 4750 2975 4387 
Q 3406 4025 3406 3419 
Q 3406 3131 3298 2873 
Q 3191 2616 2906 2266 
Q 2828 2175 2409 1742 
Q 1991 1309 1228 531 
z
" transform="scale(0.015625)"/>
     </defs>
     <use xlink:href="#DejaVuSans-32"/>
    </g>
   </g>
   <g id="text_4">
    <!-- 3 -->
    <g transform="translate(124.686298 190.023162)scale(0.05 -0.05)">
     <defs>
      <path id="DejaVuSans-33" d="M 2597 2516 
Q 3050 2419 3304 2112 
Q 3559 1806 3559 1356 
Q 3559 666 3084 287 
Q 2609 -91 1734 -91 
Q 1441 -91 1130 -33 
Q 819 25 488 141 
L 488 750 
Q 750 597 1062 519 
Q 1375 441 1716 441 
Q 2309 441 2620 675 
Q 2931 909 2931 1356 
Q 2931 1769 2642 2001 
Q 2353 2234 1838 2234 
L 1294 2234 
L 1294 2753 
L 1863 2753 
Q 2328 2753 2575 2939 
Q 2822 3125 2822 3475 
Q 2822 3834 2567 4026 
Q 2313 4219 1838 4219 
Q 1578 4219 1281 4162 
Q 984 4106 628 3988 
L 628 4550 
Q 988 4650 1302 4700 
Q 1616 4750 1894 4750 
Q 2613 4750 3031 4423 
Q 3450 4097 3450 3541 
Q 3450 3153 3228 2886 
Q 3006 2619 2597 2516 
z
" transform="scale(0.015625)"/>
     </defs>
     <use xlink:href="#DejaVuSans-33"/>
    </g>
   </g>
   <g id="text_5">
    <!-- 4 -->
    <g transform="translate(234.569375 190.023162)scale(0.05 -0.05)">
     <defs>
      <path id="DejaVuSans-34" d="M 2419 4116 
L 825 1625 
L 2419 1625 
L 2419 4116 
z
M 2253 4666 
L 3047 4666 
L 3047 1625 
L 3713 1625 
L 3713 1100 
L 3047 1100 
L 3047 0 
L 2419 0 
L 2419 1100 
L 313 1100 
L 313 1709 
L 2253 4666 
z
" transform="scale(0.015625)"/>
     </defs>
     <use xlink:href="#DejaVuSans-34"/>
    </g>
   </g>
   <g id="text_6">
    <!-- 5 -->
    <g transform="translate(344.452452 190.023162)scale(0.05 -0.05)">
     <defs>
      <path id="DejaVuSans-35" d="M 691 4666 
L 3169 4666 
L 3169 4134 
L 1269 4134 
L 1269 2991 
Q 1406 3038 1543 3061 
Q 1681 3084 1819 3084 
Q 2600 3084 3056 2656 
Q 3513 2228 3513 1497 
Q 3513 744 3044 326 
Q 2575 -91 1722 -91 
Q 1428 -91 1123 -41 
Q 819 9 494 109 
L 494 744 
Q 775 591 1075 516 
Q 1375 441 1709 441 
Q 2250 441 2565 725 
Q 2881 1009 2881 1497 
Q 2881 1984 2565 2268 
Q 2250 2553 1709 2553 
Q 1456 2553 1204 2497 
Q 953 2441 691 2322 
L 691 4666 
z
" transform="scale(0.015625)"/>
     </defs>
     <use xlink:href="#DejaVuSans-35"/>
    </g>
   </g>
   <g id="text_7">
    <!-- 6 -->
    <g transform="translate(144.352872 176.287777)scale(0.05 -0.05)">
     <defs>
      <path id="DejaVuSans-36" d="M 2113 2584 
Q 1688 2584 1439 2293 
Q 1191 2003 1191 1497 
Q 1191 994 1439 701 
Q 1688 409 2113 409 
Q 2538 409 2786 701 
Q 3034 994 3034 1497 
Q 3034 2003 2786 2293 
Q 2538 2584 2113 2584 
z
M 3366 4563 
L 3366 3988 
Q 3128 4100 2886 4159 
Q 2644 4219 2406 4219 
Q 1781 4219 1451 3797 
Q 1122 3375 1075 2522 
Q 1259 2794 1537 2939 
Q 1816 3084 2150 3084 
Q 2853 3084 3261 2657 
Q 3669 2231 3669 1497 
Q 3669 778 3244 343 
Q 2819 -91 2113 -91 
Q 1303 -91 875 529 
Q 447 1150 447 2328 
Q 447 3434 972 4092 
Q 1497 4750 2381 4750 
Q 2619 4750 2861 4703 
Q 3103 4656 3366 4563 
z
" transform="scale(0.015625)"/>
     </defs>
     <use xlink:href="#DejaVuSans-36"/>
    </g>
   </g>
   <g id="text_8">
    <!-- 7 -->
    <g transform="translate(199.29441 176.287777)scale(0.05 -0.05)">
     <defs>
      <path id="DejaVuSans-37" d="M 525 4666 
L 3525 4666 
L 3525 4397 
L 1831 0 
L 1172 0 
L 2766 4134 
L 525 4134 
L 525 4666 
z
" transform="scale(0.015625)"/>
     </defs>
     <use xlink:href="#DejaVuSans-37"/>
    </g>
   </g>
   <g id="text_9">
    <!-- 8 -->
    <g transform="translate(269.84434 176.287777)scale(0.05 -0.05)">
     <defs>
      <path id="DejaVuSans-38" d="M 2034 2216 
Q 1584 2216 1326 1975 
Q 1069 1734 1069 1313 
Q 1069 891 1326 650 
Q 1584 409 2034 409 
Q 2484 409 2743 651 
Q 3003 894 3003 1313 
Q 3003 1734 2745 1975 
Q 2488 2216 2034 2216 
z
M 1403 2484 
Q 997 2584 770 2862 
Q 544 3141 544 3541 
Q 544 4100 942 4425 
Q 1341 4750 2034 4750 
Q 2731 4750 3128 4425 
Q 3525 4100 3525 3541 
Q 3525 3141 3298 2862 
Q 3072 2584 2669 2484 
Q 3125 2378 3379 2068 
Q 3634 1759 3634 1313 
Q 3634 634 3220 271 
Q 2806 -91 2034 -91 
Q 1263 -91 848 271 
Q 434 634 434 1313 
Q 434 1759 690 2068 
Q 947 2378 1403 2484 
z
M 1172 3481 
Q 1172 3119 1398 2916 
Q 1625 2713 2034 2713 
Q 2441 2713 2670 2916 
Q 2900 3119 2900 3481 
Q 2900 3844 2670 4047 
Q 2441 4250 2034 4250 
Q 1625 4250 1398 4047 
Q 1172 3844 1172 3481 
z
" transform="scale(0.015625)"/>
     </defs>
     <use xlink:href="#DejaVuSans-38"/>
    </g>
   </g>
   <g id="text_10">
    <!-- 9 -->
    <g transform="translate(324.785878 176.287777)scale(0.05 -0.05)">
     <defs>
      <path id="DejaVuSans-39" d="M 703 97 
L 703 672 
Q 941 559 1184 500 
Q 1428 441 1663 441 
Q 2288 441 2617 861 
Q 2947 1281 2994 2138 
Q 2813 1869 2534 1725 
Q 2256 1581 1919 1581 
Q 1219 1581 811 2004 
Q 403 2428 403 3163 
Q 403 3881 828 4315 
Q 1253 4750 1959 4750 
Q 2769 4750 3195 4129 
Q 3622 3509 3622 2328 
Q 3622 1225 3098 567 
Q 2575 -91 1691 -91 
Q 1453 -91 1209 -44 
Q 966 3 703 97 
z
M 1959 2075 
Q 2384 2075 2632 2365 
Q 2881 2656 2881 3163 
Q 2881 3666 2632 3958 
Q 2384 4250 1959 4250 
Q 1534 4250 1286 3958 
Q 1038 3666 1038 3163 
Q 1038 2656 1286 2365 
Q 1534 2075 1959 2075 
z
" transform="scale(0.015625)"/>
     </defs>
     <use xlink:href="#DejaVuSans-39"/>
    </g>
   </g>
   <g id="text_11">
    <!-- 10 -->
    <g transform="translate(142.762247 142.885819)scale(0.05 -0.05)">
     <use xlink:href="#DejaVuSans-31"/>
     <use xlink:href="#DejaVuSans-30" x="63.623047"/>
    </g>
   </g>
   <g id="text_12">
    <!-- 11 -->
    <g transform="translate(182.095393 142.885819)scale(0.05 -0.05)">
     <use xlink:href="#DejaVuSans-31"/>
     <use xlink:href="#DejaVuSans-31" x="63.623047"/>
    </g>
   </g>
   <g id="text_13">
    <!-- 12 -->
    <g transform="translate(213.312177 142.885819)scale(0.05 -0.05)">
     <use xlink:href="#DejaVuSans-31"/>
     <use xlink:href="#DejaVuSans-32" x="63.623047"/>
    </g>
   </g>
   <g id="text_14">
    <!-- 13 -->
    <g transform="translate(252.645323 142.885819)scale(0.05 -0.05)">
     <use xlink:href="#DejaVuSans-31"/>
     <use xlink:href="#DejaVuSans-33" x="63.623047"/>
    </g>
   </g>
   <g id="text_15">
    <!-- 14 -->
    <g transform="translate(283.862107 142.885819)scale(0.05 -0.05)">
     <use xlink:href="#DejaVuSans-31"/>
     <use xlink:href="#DejaVuSans-34" x="63.623047"/>
    </g>
   </g>
   <g id="text_16">
    <!-- 15 -->
    <g transform="translate(323.195253 142.885819)scale(0.05 -0.05)">
     <use xlink:href="#DejaVuSans-31"/>
     <use xlink:href="#DejaVuSans-35" x="63.623047"/>
    </g>
   </g>
   <g id="text_17">
    <!-- 16 -->
    <g transform="translate(162.42882 102.928336)scale(0.05 -0.05)">
     <use xlink:href="#DejaVuSans-31"/>
     <use xlink:href="#DejaVuSans-36" x="63.623047"/>
    </g>
   </g>
   <g id="text_18">
    <!-- 17 -->
    <g transform="translate(232.97875 102.928336)scale(0.05 -0.05)">
     <use xlink:href="#DejaVuSans-31"/>
     <use xlink:href="#DejaVuSans-37" x="63.623047"/>
    </g>
   </g>
   <g id="text_19">
    <!-- 18 -->
    <g transform="translate(303.52868 102.928336)scale(0.05 -0.05)">
     <use xlink:href="#DejaVuSans-31"/>
     <use xlink:href="#DejaVuSans-38" x="63.623047"/>
    </g>
   </g>
   <g id="text_20">
    <!-- 19 -->
    <g transform="translate(232.97875 73.896728)scale(0.05 -0.05)">
     <use xlink:href="#DejaVuSans-31"/>
     <use xlink:href="#DejaVuSans-39" x="63.623047"/>
    </g>
   </g>
  </g>
 </g>
 <defs>
  <clipPath id="pd7fc26c44d">
   <rect x="57.6" y="49.291754" width="357.12" height="167.571692"/>
  </clipPath>
 </defs>
</svg>
